<?xml version="1.0" standalone="no"?>
<!DOCTYPE svg PUBLIC "-//W3C//DTD SVG 20010904//EN"
 "http://www.w3.org/TR/2001/REC-SVG-20010904/DTD/svg10.dtd">
<svg version="1.0" xmlns="http://www.w3.org/2000/svg"
 width="700.000000pt" height="700.000000pt" viewBox="0 0 700.000000 700.000000"
 preserveAspectRatio="xMidYMid meet">
<metadata>
Created by potrace 1.11, written by Peter Selinger 2001-2013
</metadata>
<g transform="translate(0.000000,700.000000) scale(0.100000,-0.100000)"
fill="#000000" stroke="none">
<path d="M5171 6749 c-112 -29 -190 -77 -274 -169 -176 -195 -189 -488 -30
-697 112 -148 271 -224 458 -218 473 14 710 582 385 924 -83 88 -180 144 -290
167 -65 14 -179 11 -249 -7z"/>
<path d="M3970 5955 c-117 -34 -206 -86 -273 -159 -36 -39 -92 -124 -101 -153
l-7 -23 -1119 -2 -1118 -3 -25 -23 c-14 -13 -28 -35 -31 -48 -4 -16 -14 -24
-29 -25 -72 -4 -228 -1 -241 4 -12 5 -15 25 -15 101 0 75 -4 103 -20 133 -26
51 -68 89 -116 106 -53 19 -266 20 -319 2 -46 -16 -99 -65 -123 -114 -16 -34
-17 -173 -18 -2392 l0 -2357 -190 -216 c-104 -119 -198 -233 -208 -254 -32
-69 -13 -164 47 -230 52 -58 41 -57 656 -57 l565 0 45 30 c82 54 118 167 82
256 -11 28 -86 120 -200 247 -38 42 -99 111 -136 152 l-66 75 1 171 1 172
2299 0 c1791 0 2306 2 2329 12 19 8 36 26 47 51 l17 39 142 0 143 0 -1 -218
c0 -209 -3 -234 -30 -264 -13 -13 -134 -150 -193 -217 -16 -19 -45 -50 -63
-70 -62 -68 -110 -136 -122 -175 -32 -99 33 -218 139 -254 46 -16 1079 -17
1135 -1 53 15 119 83 135 141 14 48 9 113 -10 151 -9 18 -97 126 -119 147 -3
3 -36 41 -75 85 -78 89 -125 142 -140 159 -6 6 -21 25 -35 41 l-25 31 0 2329
c0 1419 -3 2349 -9 2379 -12 64 -81 139 -141 154 -49 13 -247 14 -295 1 -82
-21 -149 -111 -150 -201 l0 -48 -688 0 -688 0 -23 47 c-60 123 -175 223 -317
275 -72 26 -235 33 -304 13z m-2191 -920 c84 -30 152 -92 196 -182 24 -50 28
-70 29 -143 0 -71 -4 -94 -26 -141 -35 -76 -85 -129 -160 -170 -59 -32 -68
-34 -158 -33 -78 0 -104 4 -143 23 -75 37 -140 102 -173 173 -25 54 -29 75
-28 148 0 88 18 146 67 212 83 112 258 162 396 113z m3616 10 c112 -29 213
-131 245 -248 32 -116 -11 -260 -101 -341 -78 -70 -129 -90 -234 -90 -77 -1
-98 3 -145 25 -255 122 -277 464 -41 614 75 47 187 63 276 40z m-922 -94 c24
-36 67 -146 67 -170 0 -6 -16 -18 -35 -27 -40 -19 -59 -49 -68 -108 -4 -22
-18 -63 -32 -92 -94 -193 -344 -254 -514 -125 -117 87 -167 219 -136 357 16
71 62 148 83 140 10 -3 49 -16 87 -30 85 -30 196 -38 284 -20 70 15 172 59
211 92 14 12 26 21 26 22 1 0 13 -18 27 -39z m-263 -1107 c65 -24 126 -69 162
-117 38 -53 48 -77 63 -152 29 -151 -51 -305 -195 -374 -48 -22 -68 -26 -150
-26 -85 0 -101 3 -149 29 -213 111 -261 386 -97 551 58 59 93 80 167 99 64 16
139 12 199 -10z"/>
</g>
</svg>
